<?xml version="1.0" encoding="iso-8859-1"?>
<!-- Generator: Adobe Illustrator 19.0.0, SVG Export Plug-In . SVG Version: 6.00 Build 0)  -->
<svg version="1.1" id="Layer_1" xmlns="http://www.w3.org/2000/svg" xmlns:xlink="http://www.w3.org/1999/xlink" x="0px" y="0px"
	 viewBox="0 0 512.001 512.001" style="enable-background:new 0 0 512.001 512.001;" xml:space="preserve">
<g>
	<g>
		<path d="M497.504,213.882l-25.239-9.566c-2.902-1.25-47.361-21.538-47.361-88.714l-0.012-34.895l-27.958,20.896
			c-10.267,7.673-38.883,26.071-61.815,30.511L255.853,0l-79.269,132.114c-22.932-4.438-51.546-22.836-61.802-30.502L86.801,80.626
			v34.976c0,67.171-44.454,87.462-47.361,88.714l-24.942,9.449l88.376,88.377l-64.682,64.682l24.625,9.851
			c50.925,20.37,72.291,61.198,72.464,61.536l10.851,21.702l92.231-92.231v144.32h34.976V367.68l92.231,92.231l10.851-21.702
			c0.204-0.407,20.94-40.926,72.465-61.536l24.624-9.85l-64.683-64.682l69.245-69.246L497.504,213.882z M359.367,302.142
			l53.277,53.278c-26.222,14.986-43.94,33.631-54.622,47.478l-77.439-77.439l57.586-57.587l-24.729-24.732l-40.099,40.098v-74.368
			h-34.976v74.368l-40.099-40.098l-24.732,24.732l57.586,57.587l-77.439,77.439c-10.684-13.847-28.4-32.492-54.622-47.478
			l53.278-53.278l-78.439-78.439c16.585-13.045,37.897-37.108,45.249-77.665c18.402,10.495,43.836,22.028,66.752,22.028h9.902
			l60.052-100.085l60.051,100.085h9.902c22.916,0,48.351-11.533,66.752-22.028c7.353,40.557,28.664,64.62,45.249,77.665
			L359.367,302.142z"/>
	</g>
</g>
<g>
</g>
<g>
</g>
<g>
</g>
<g>
</g>
<g>
</g>
<g>
</g>
<g>
</g>
<g>
</g>
<g>
</g>
<g>
</g>
<g>
</g>
<g>
</g>
<g>
</g>
<g>
</g>
<g>
</g>
</svg>
